<?xml version="1.0" encoding="UTF-8" standalone="no"?>
<!-- Created with Inkscape (http://www.inkscape.org/) -->

<svg
   width="218.66415mm"
   height="84.561302mm"
   viewBox="0 0 218.66416 84.561302"
   version="1.1"
   id="svg1"
   inkscape:version="1.4.3 (0d15f75, 2025-12-25)"
   sodipodi:docname="logo.svg"
   inkscape:export-filename="logo.svg"
   inkscape:export-xdpi="96"
   inkscape:export-ydpi="96"
   xmlns:inkscape="http://www.inkscape.org/namespaces/inkscape"
   xmlns:sodipodi="http://sodipodi.sourceforge.net/DTD/sodipodi-0.dtd"
   xmlns="http://www.w3.org/2000/svg"
   xmlns:svg="http://www.w3.org/2000/svg">
  <sodipodi:namedview
     id="namedview1"
     pagecolor="#505050"
     bordercolor="#ffffff"
     borderopacity="1"
     inkscape:showpageshadow="0"
     inkscape:pageopacity="0"
     inkscape:pagecheckerboard="1"
     inkscape:deskcolor="#505050"
     inkscape:document-units="mm"
     inkscape:zoom="0.68862935"
     inkscape:cx="310.03616"
     inkscape:cy="479.93888"
     inkscape:window-width="1920"
     inkscape:window-height="991"
     inkscape:window-x="-9"
     inkscape:window-y="-9"
     inkscape:window-maximized="1"
     inkscape:current-layer="layer1">
    <inkscape:page
       x="0"
       y="0"
       width="218.66415"
       height="84.561302"
       id="page2"
       margin="0"
       bleed="0" />
  </sodipodi:namedview>
  <defs
     id="defs1" />
  <g
     inkscape:label="Livello 1"
     inkscape:groupmode="layer"
     id="layer1"
     transform="translate(-22.862573,-21.223425)">
    <path
       d="m 90.561734,84.810518 h 2.964 v 4.2 q -0.696,0.228 -1.404,0.336 -0.708,0.108 -1.608,0.108 -1.332,0 -2.244,-0.528 -0.912,-0.54 -1.392,-1.524 -0.468,-0.996 -0.468,-2.352 0,-1.344 0.528,-2.328 0.528,-0.984 1.512,-1.524 0.996,-0.552 2.4,-0.552 0.72,0 1.356,0.132 0.648,0.132 1.2,0.372 l -0.408,0.936 q -0.456,-0.204 -1.032,-0.348 -0.564,-0.144 -1.176,-0.144 -1.536,0 -2.4,0.924 -0.852,0.924 -0.852,2.532 0,1.02 0.324,1.812 0.336,0.78 1.044,1.224 0.708,0.432 1.86,0.432 0.564,0 0.96,-0.06 0.396,-0.06 0.72,-0.144 v -2.544 h -1.884 z m 7.872008,-2.028 q 0.18,0 0.384,0.024 0.216,0.012 0.372,0.048 l -0.132,0.972 q -0.156,-0.036 -0.348,-0.06 -0.18,-0.024 -0.348,-0.024 -0.492,0 -0.924,0.276 -0.432,0.264 -0.696,0.756 -0.252,0.48 -0.252,1.128 v 3.432 h -1.056 v -6.432 h 0.864 l 0.12,1.176 h 0.048 q 0.312,-0.528 0.804,-0.912 0.492,-0.384 1.164,-0.384 z m 4.199998,0 q 0.828,0 1.416,0.36 0.6,0.36 0.912,1.02 0.324,0.648 0.324,1.524 v 0.636 h -4.404 q 0.024,1.092 0.552,1.668 0.54,0.564 1.5,0.564 0.612,0 1.08,-0.108 0.48,-0.12 0.984,-0.336 v 0.924 q -0.492,0.216 -0.972,0.312 -0.48,0.108 -1.14,0.108 -0.912,0 -1.62,-0.372 -0.696,-0.372 -1.092,-1.104 -0.384002,-0.744 -0.384002,-1.812 0,-1.056 0.348002,-1.812 0.36,-0.756 0.996,-1.164 0.648,-0.408 1.5,-0.408 z m -0.012,0.864 q -0.756,0 -1.2,0.492 -0.432,0.48 -0.516,1.344 h 3.276 q -0.012,-0.816 -0.384,-1.32 -0.372,-0.516 -1.176,-0.516 z m 6.77999,-0.864 q 0.828,0 1.416,0.36 0.6,0.36 0.912,1.02 0.324,0.648 0.324,1.524 v 0.636 h -4.404 q 0.024,1.092 0.552,1.668 0.54,0.564 1.5,0.564 0.612,0 1.08,-0.108 0.48,-0.12 0.984,-0.336 v 0.924 q -0.492,0.216 -0.972,0.312 -0.48,0.108 -1.14,0.108 -0.912,0 -1.62,-0.372 -0.696,-0.372 -1.092,-1.104 -0.384,-0.744 -0.384,-1.812 0,-1.056 0.348,-1.812 0.36,-0.756 0.996,-1.164 0.648,-0.408 1.5,-0.408 z m -0.012,0.864 q -0.756,0 -1.2,0.492 -0.432,0.48 -0.516,1.344 h 3.276 q -0.012,-0.816 -0.384,-1.32 -0.372,-0.516 -1.176,-0.516 z m 7.39199,-0.864 q 1.152,0 1.74,0.564 0.588,0.552 0.588,1.8 v 4.188 h -1.044 v -4.116 q 0,-1.548 -1.44,-1.548 -1.068,0 -1.476,0.6 -0.408,0.6 -0.408,1.728 v 3.336 h -1.056 v -6.432 h 0.852 l 0.156,0.876 h 0.06 q 0.312,-0.504 0.864,-0.744 0.552,-0.252 1.164,-0.252 z m 9.252,6.552 h -4.788 v -8.568 h 4.788 v 0.948 h -3.708 v 2.676 h 3.492 v 0.936 h -3.492 v 3.06 h 3.708 z m 4.176,-6.54 q 1.176,0 1.74,0.516 0.564,0.516 0.564,1.644 v 4.38 h -0.768 l -0.204,-0.912 h -0.048 q -0.42,0.528 -0.888,0.78 -0.456,0.252 -1.272,0.252 -0.876,0 -1.452,-0.456 -0.576,-0.468 -0.576,-1.452 0,-0.96 0.756,-1.476 0.756,-0.528 2.328,-0.576 l 1.092,-0.036 v -0.384 q 0,-0.804 -0.348,-1.116 -0.348,-0.312 -0.984,-0.312 -0.504,0 -0.96,0.156 -0.456,0.144 -0.852,0.336 l -0.324,-0.792 q 0.42,-0.228 0.996,-0.384 0.576,-0.168 1.2,-0.168 z m 0.312,3.432 q -1.2,0.048 -1.668,0.384 -0.456,0.336 -0.456,0.948 0,0.54 0.324,0.792 0.336,0.252 0.852,0.252 0.816,0 1.356,-0.444 0.54,-0.456 0.54,-1.392 v -0.576 z m 6.98401,-3.444 q 0.18,0 0.384,0.024 0.216,0.012 0.372,0.048 l -0.132,0.972 q -0.156,-0.036 -0.348,-0.06 -0.18,-0.024 -0.348,-0.024 -0.492,0 -0.924,0.276 -0.432,0.264 -0.696,0.756 -0.252,0.48 -0.252,1.128 v 3.432 h -1.056 v -6.432 h 0.864 l 0.12,1.176 h 0.048 q 0.312,-0.528 0.804,-0.912 0.492,-0.384 1.164,-0.384 z m 4.104,5.808 q 0.24,0 0.492,-0.036 0.252,-0.048 0.408,-0.096 v 0.804 q -0.168,0.084 -0.48,0.132 -0.312,0.06 -0.6,0.06 -0.504,0 -0.936,-0.168 -0.42,-0.18 -0.684,-0.612 -0.264,-0.432 -0.264,-1.212 v -3.744 h -0.912 v -0.504 l 0.924,-0.42 0.42,-1.368 h 0.624 v 1.476 h 1.86 v 0.816 h -1.86 v 3.72 q 0,0.588 0.276,0.876 0.288,0.276 0.732,0.276 z m 3.24,-5.7 q 0,0.48 -0.06,0.9 h 0.072 q 0.312,-0.492 0.84,-0.744 0.54,-0.252 1.164,-0.252 1.176,0 1.764,0.564 0.588,0.552 0.588,1.788 v 4.188 h -1.044 v -4.116 q 0,-1.548 -1.44,-1.548 -1.08,0 -1.488,0.612 -0.396,0.6 -0.396,1.728 v 3.324 h -1.056 v -9.12 h 1.056 z"
       id="text1"
       style="white-space:pre;opacity:1;fill:#fcdd9a;fill-opacity:0.69"
       transform="scale(0.26458333)"
       aria-label="GreenEarth" />
    <path
       style="font-size:192px;font-family:'Fleur De Leah';-inkscape-font-specification:'Fleur De Leah, Normal';white-space:pre;opacity:1;fill:#fcdd9a;fill-opacity:0.69"
       d="m 227.99309,399.81629 q -1.728,0 -3.456,-0.96 -1.728,-0.768 -2.88,-2.688 l -0.384,-0.384 q -0.384,0 -0.96,0 -0.384,0.192 -0.768,0.192 -3.648,0 -6.144,-2.112 -2.304,-1.92 -2.304,-4.992 0,-3.456 3.072,-7.104 0.96,-1.152 2.496,-2.496 1.728,-1.152 3.648,-2.304 -3.456,0.768 -7.104,1.152 -3.648,0.384 -7.488,0.384 -3.456,0 -7.104,-0.384 -3.648,-0.192 -7.488,-0.96 -14.592,-2.496 -23.808,-9.984 -9.216,-7.296 -13.632,-17.472 -4.416,-9.984 -4.416,-20.544 0,-7.296 1.92,-14.4 1.92,-6.912 5.568,-12.864 4.8,-7.68 12.096,-12.672 7.296,-5.184 15.744,-7.488 8.64,-2.304 16.704,-1.92 4.224,-0.384 6.912,-2.496 2.88,-2.112 4.224,-4.608 -2.688,-0.768 -4.032,-3.264 -1.344,-2.688 -1.344,-5.376 0,-0.96 0,-1.728 0.192,-0.768 0.384,-1.536 0.96,-3.264 2.304,-4.992 1.536,-1.92 2.88,-3.264 1.152,-1.152 1.92,-3.072 0.96,-1.92 0.96,-3.84 0,-2.688 -2.112,-4.032 0.576,-0.576 1.728,-0.576 2.88,0 4.992,2.88 2.304,2.88 3.456,7.104 1.152,4.032 1.152,8.064 0,6.144 -3.456,9.984 -3.264,3.84 -6.72,4.032 -2.304,5.184 -7.872,7.296 0.96,0.192 1.92,0.384 1.152,0.192 2.112,0.576 9.6,2.88 16.128,9.984 6.528,6.912 6.528,16.896 0,6.528 -3.072,13.44 1.92,0.192 4.416,0.96 2.496,0.768 3.648,3.84 0.576,1.344 0.576,2.688 0,3.456 -2.496,7.296 -2.496,4.032 -6.336,7.488 -3.84,3.456 -8.064,5.952 -4.032,2.496 -8.256,2.496 -1.152,0 -1.536,-0.192 2.688,-0.96 3.456,-3.648 0.96,-2.496 0.96,-5.568 0,-2.88 -0.576,-5.76 -0.384,-2.88 -0.96,-4.8 -0.576,-2.304 -0.576,-4.416 0,-3.648 1.728,-6.144 1.728,-2.496 4.416,-2.688 3.264,-0.384 4.992,0.384 1.728,0.96 3.072,1.728 1.536,-3.264 2.112,-6.144 0.576,-2.88 0.576,-5.568 0,-9.6 -6.72,-16.128 -6.528,-6.72 -16.128,-9.024 -4.224,-1.152 -9.216,-1.152 -9.984,0 -19.776,5.184 -9.6,5.184 -15.744,15.36 -8.448,13.824 -8.448,29.568 0,6.336 1.536,12.48 1.728,6.144 5.376,11.328 -0.192,-0.768 -0.192,-1.344 0,-0.576 0,-1.344 0,-4.416 1.728,-7.488 -0.576,-0.384 -1.344,-1.152 -0.96,-1.152 -0.96,-3.456 0,-2.112 1.152,-4.608 1.152,-2.304 3.456,-4.224 2.304,-1.92 5.952,-3.264 3.648,-1.152 7.296,-1.152 4.224,0 6.144,1.92 1.152,0.768 1.152,1.536 0.192,0.768 0,1.152 -0.768,-0.576 -1.92,-0.576 -1.92,0 -3.84,1.728 -1.728,1.92 -2.304,3.648 -0.576,1.344 -1.536,3.072 -0.96,1.92 -3.072,4.032 -2.496,2.496 -6.144,2.496 -1.536,0 -2.112,-0.192 -1.728,4.032 -1.728,7.68 0,3.456 1.152,5.184 4.416,4.608 10.56,7.872 6.336,3.456 14.976,4.992 2.304,0.384 4.608,0.576 2.304,0.192 4.416,0.192 12.288,0 22.848,-5.568 10.56,-5.376 19.392,-14.784 8.832,-9.216 16.32,-20.736 7.488,-11.328 13.632,-23.616 6.144,-12.096 11.136,-23.424 5.184,-11.328 9.408,-19.968 3.84,-7.872 8.256,-15.168 4.416,-7.488 9.216,-13.248 -5.568,5.376 -11.712,12.096 -6.144,6.528 -12.864,12.48 -6.72,5.952 -14.016,9.792 -7.296,3.84 -15.168,3.84 -9.984,0 -14.784,-6.144 -4.8,-6.144 -4.8,-15.168 0,-7.296 2.88,-14.976 l -1.344,-0.576 q -11.136,-4.8 -16.32,-13.056 -4.992,-8.256 -6.528,-15.36 -0.768,-1.92 -2.304,-3.456 -1.344,-1.728 -3.456,-3.072 -2.112,2.688 -5.76,2.688 -2.688,0 -4.992,-1.152 -1.536,-0.576 -3.84,-3.264 -2.304,-2.88 -4.992,-4.8 -2.688,-2.112 -5.568,-2.112 -2.688,0 -4.608,1.92 -0.384,-0.384 -0.384,-0.96 0,-0.96 0.96,-2.112 1.92,-2.112 5.76,-3.456 4.032,-1.344 8.448,-1.344 4.992,0 9.024,1.728 3.648,1.728 5.376,4.416 1.728,2.688 1.728,5.184 0,0.96 -0.192,1.536 2.112,1.152 4.032,3.456 0,-0.96 -0.192,-1.536 0,-0.768 0,-1.536 0,-6.528 3.456,-11.904 3.456,-5.568 8.832,-9.024 5.376,-3.648 10.944,-4.608 0.192,-0.384 0.192,-0.576 0,-0.384 0.192,-0.576 3.264,-7.104 11.712,-7.104 4.032,0 8.448,2.112 4.416,2.112 7.68,6.336 3.072,3.648 7.104,3.648 1.344,0 2.112,-0.576 2.304,-1.728 2.304,-0.576 0,2.688 -2.496,4.992 -2.304,2.304 -4.992,2.688 -0.768,0.192 -1.536,0.192 -0.576,0 -1.344,0 -4.8,0 -8.448,-1.536 -3.456,-1.728 -6.528,-3.648 0.384,1.152 0.384,1.92 0,1.728 -0.96,3.264 -0.96,1.536 -2.496,1.92 h -0.96 q -1.152,0 -1.152,-0.384 0,-0.576 1.344,-1.152 1.152,-0.576 1.152,-1.92 0,-2.112 -1.92,-4.416 -1.92,-2.304 -3.456,-3.072 -1.536,-0.384 -2.688,-0.384 -1.152,0 -1.728,0.192 -4.608,0.96 -9.408,4.416 -4.8,3.456 -8.064,8.64 -3.072,4.992 -3.072,11.136 0,3.072 0.384,5.76 0.384,2.688 0.96,5.376 0.384,-1.536 1.344,-2.688 0.96,-1.344 2.496,-1.92 0.576,-0.384 1.152,-0.384 0.768,0 1.536,0 4.416,0 5.376,1.344 1.152,0.768 0.96,0.96 -0.192,0 -0.384,0.576 -0.576,-0.192 -1.728,-0.192 -2.88,0 -5.952,1.728 -2.88,1.536 -2.88,3.84 v 1.92 q 2.88,5.952 7.68,10.56 4.8,4.416 10.752,7.104 4.416,-10.176 13.44,-19.776 9.216,-9.6 22.656,-15.168 6.336,-2.688 11.52,-3.84 5.376,-1.152 9.6,-1.152 9.024,0 13.248,4.224 4.224,4.224 4.224,10.368 0,7.104 -5.76,14.976 -5.568,7.872 -16.704,12.864 -6.144,2.688 -13.248,4.032 -7.104,1.344 -14.208,1.344 -3.84,0 -7.68,-0.384 -3.648,-0.384 -7.296,-1.152 -3.84,9.408 -3.84,16.896 0,5.76 2.688,9.408 2.88,3.456 8.832,3.456 7.872,0 15.36,-4.8 7.68,-4.992 14.784,-12.096 7.104,-7.296 13.824,-14.4 6.72,-7.104 13.056,-11.904 6.336,-4.992 12.288,-4.992 0.768,-0.192 1.92,-0.192 2.688,0.192 4.224,1.728 1.536,1.536 1.536,3.072 -0.192,1.728 -1.728,2.688 -1.536,0.96 -3.072,0.96 -1.92,0 -3.072,-0.768 -1.152,-0.96 -2.112,-1.152 -0.768,-0.384 -1.344,-0.576 -0.576,-0.192 -1.152,-0.192 -1.536,0 -3.648,1.344 -5.76,4.8 -10.752,13.824 -4.992,8.832 -9.792,21.12 -6.336,16.32 -12.672,34.368 -6.144,18.048 -15.744,34.368 v 0.192 q -0.192,0.384 -0.192,1.728 0,2.496 1.152,5.376 1.152,2.88 3.072,2.88 h 0.384 q 0.576,0 0.576,0.384 0,0.576 -1.344,1.152 -1.152,0.384 -2.112,0.384 -1.152,0 -2.304,-0.768 -1.152,-0.576 -1.728,-1.92 -0.192,-0.576 -0.384,-1.152 0,-0.576 0,-1.152 0,-2.112 0.576,-3.456 -7.872,12.672 -18.048,22.08 -9.984,9.6 -23.04,14.016 -2.112,1.152 -4.992,2.88 -2.88,1.728 -4.8,3.84 -1.344,1.728 -2.304,3.456 -0.96,1.92 -0.96,3.456 0,1.92 1.728,3.456 1.728,1.728 5.568,2.112 -0.384,-1.536 -0.384,-2.112 0,-3.456 2.496,-6.144 2.496,-2.688 5.376,-1.92 2.496,0.768 5.184,0.768 5.568,0 8.64,-2.688 3.264,-2.496 4.416,-3.84 0.192,0.576 0.192,1.92 0,4.416 -3.072,8.64 -2.88,4.416 -4.992,6.336 -1.344,1.152 -4.416,2.688 -3.072,1.728 -6.336,1.728 z m 37.248,-157.632 q 6.912,0 13.632,-1.344 6.72,-1.344 12.672,-3.84 11.136,-4.992 16.128,-11.712 5.184,-6.72 5.184,-12.672 0,-5.184 -3.648,-8.64 -3.456,-3.648 -10.176,-3.648 -4.032,0 -9.216,1.728 -4.992,1.536 -10.944,5.184 -8.256,4.992 -15.552,14.4 -7.296,9.216 -11.712,19.2 3.264,0.768 6.72,1.152 3.456,0.192 6.912,0.192 z m 62.97585,69.504 q -3.84,0 -6.912,-2.304 -2.88,-2.304 -2.88,-6.528 0,-4.8 2.496,-10.368 2.688,-5.568 5.76,-9.984 3.072,-4.608 4.032,-5.952 3.456,-4.608 6.336,-9.408 3.072,-4.992 3.072,-8.064 0,-2.88 -2.496,-3.648 -2.112,-0.768 -4.416,-1.536 -2.304,-0.96 -3.456,-1.152 -0.576,0.96 -2.688,4.608 -2.112,3.456 -4.992,8.064 -2.688,4.416 -5.184,8.64 -2.496,4.224 -3.84,6.336 -1.152,1.344 -1.92,1.344 -0.768,0 -1.152,-0.768 -0.192,-0.768 0.384,-1.728 5.76,-9.024 10.176,-16.896 4.416,-7.872 5.76,-9.984 -1.92,-1.344 -3.072,-4.608 -1.152,-3.264 -1.152,-6.72 0,-3.84 1.536,-6.912 1.536,-3.072 5.184,-3.072 2.496,0 3.456,2.496 0.96,2.304 0.96,5.376 0,2.688 -0.576,5.184 -0.576,2.496 -0.96,3.456 l -1.344,3.072 q 2.304,0.192 6.912,0.768 4.608,0.576 9.6,1.344 2.88,0.384 4.608,2.112 1.92,1.728 1.92,4.608 0,2.88 -1.92,6.912 -1.92,4.032 -6.528,9.216 -2.304,2.688 -5.568,7.104 -3.264,4.416 -6.144,8.64 -2.88,4.032 -4.224,6.336 -2.496,4.032 -2.496,7.296 0,3.648 4.032,3.648 4.416,0 9.408,-3.264 4.992,-3.456 9.792,-8.448 4.8,-4.992 8.448,-9.792 3.84,-4.992 5.568,-7.872 0.768,-1.344 2.112,-1.344 0.96,0 0.96,0.96 0,0.96 -0.384,1.536 -1.92,2.88 -6.336,8.64 -4.224,5.76 -10.176,11.712 -5.952,5.76 -13.248,9.024 -2.304,0.96 -4.608,1.344 -2.304,0.576 -3.84,0.576 z m 48.76798,-0.192 q -4.992,0 -9.408,-2.304 -4.416,-2.496 -6.528,-7.872 -1.344,-3.456 -1.344,-7.872 0,-5.376 2.112,-10.56 2.688,-6.336 7.872,-12.48 5.184,-6.144 11.52,-11.136 6.336,-4.992 12.672,-7.872 6.336,-3.072 11.328,-3.072 4.224,0 6.72,2.304 1.728,1.728 1.728,4.992 0,4.224 -3.264,9.792 -3.072,5.376 -8.832,9.408 -3.648,2.496 -8.64,4.224 -4.8,1.536 -10.176,1.536 -1.728,0 -3.648,-0.192 -1.728,-0.192 -3.456,-0.576 -1.344,1.536 -3.264,4.992 -1.728,3.264 -3.072,7.296 -1.152,4.032 -1.152,7.68 0.192,4.992 2.688,7.104 2.688,1.92 6.336,1.92 7.296,0 14.016,-4.608 6.912,-4.8 12.48,-11.712 5.568,-6.912 9.408,-13.248 0.576,-0.768 0.96,-0.768 0.384,-0.192 0.576,-0.192 0.576,0 0.96,0.576 0.576,0.576 0.192,1.536 -2.496,4.032 -6.528,9.6 -3.84,5.568 -9.216,10.752 -5.184,4.992 -11.712,8.256 -2.496,1.344 -5.568,1.92 -2.88,0.576 -5.76,0.576 z m 4.032,-33.6 q 9.024,0 16.32,-4.608 7.488,-4.8 10.752,-11.52 0.96,-1.536 1.152,-2.88 0.384,-1.344 0.384,-2.112 0,-3.264 -3.648,-3.264 -2.304,0 -5.184,1.152 -2.688,1.152 -4.8,2.688 -3.648,2.688 -7.68,6.72 -3.84,3.84 -6.912,7.68 -3.072,3.648 -4.608,5.76 0.96,0.192 2.112,0.384 1.152,0 2.112,0 z m 45.31199,33.6 q -4.992,0 -9.408,-2.304 -4.416,-2.496 -6.528,-7.872 -1.344,-3.456 -1.344,-7.872 0,-5.376 2.112,-10.56 2.688,-6.336 7.872,-12.48 5.184,-6.144 11.52,-11.136 6.336,-4.992 12.672,-7.872 6.336,-3.072 11.328,-3.072 4.224,0 6.72,2.304 1.728,1.728 1.728,4.992 0,4.224 -3.264,9.792 -3.072,5.376 -8.832,9.408 -3.648,2.496 -8.64,4.224 -4.8,1.536 -10.176,1.536 -1.728,0 -3.648,-0.192 -1.728,-0.192 -3.456,-0.576 -1.344,1.536 -3.264,4.992 -1.728,3.264 -3.072,7.296 -1.152,4.032 -1.152,7.68 0.192,4.992 2.688,7.104 2.688,1.92 6.336,1.92 7.296,0 14.016,-4.608 6.912,-4.8 12.48,-11.712 5.568,-6.912 9.408,-13.248 0.576,-0.768 0.96,-0.768 0.384,-0.192 0.576,-0.192 0.576,0 0.96,0.576 0.576,0.576 0.192,1.536 -2.496,4.032 -6.528,9.6 -3.84,5.568 -9.216,10.752 -5.184,4.992 -11.712,8.256 -2.496,1.344 -5.568,1.92 -2.88,0.576 -5.76,0.576 z m 4.032,-33.6 q 9.024,0 16.32,-4.608 7.488,-4.8 10.752,-11.52 0.96,-1.536 1.152,-2.88 0.384,-1.344 0.384,-2.112 0,-3.264 -3.648,-3.264 -2.304,0 -5.184,1.152 -2.688,1.152 -4.8,2.688 -3.648,2.688 -7.68,6.72 -3.84,3.84 -6.912,7.68 -3.072,3.648 -4.608,5.76 0.96,0.192 2.112,0.384 1.152,0 2.112,0 z m 78.33599,34.56 q -4.608,0 -7.872,-2.88 -3.264,-3.072 -3.264,-8.64 0,-6.72 3.84,-13.824 3.84,-7.296 9.024,-14.4 5.184,-7.104 9.024,-13.056 2.112,-3.648 2.112,-5.952 0,-2.688 -2.496,-2.688 -1.92,0 -5.76,2.496 -3.84,2.304 -9.792,8.064 -5.76,5.76 -11.136,12.864 -5.184,6.912 -9.6,13.824 -4.224,6.912 -7.488,12.672 -3.072,5.76 -4.608,8.832 -1.344,0.576 -3.456,0.768 -1.92,0.192 -4.032,0.192 -4.8,0 -6.336,-0.576 2.496,-3.456 6.528,-9.6 4.224,-6.144 8.832,-13.248 4.608,-7.296 8.448,-13.632 2.112,-3.648 4.608,-7.872 2.496,-4.224 4.224,-7.872 1.728,-3.84 1.728,-5.76 0,-1.92 -1.536,-1.92 -0.96,0 -2.496,0.96 -1.536,0.96 -2.88,2.496 -2.88,2.88 -7.488,9.024 -4.416,5.952 -11.712,17.664 -0.576,0.96 -1.92,0.96 -1.536,0 -0.768,-2.112 3.456,-5.568 7.104,-11.136 3.648,-5.76 7.296,-10.752 3.84,-4.992 7.104,-7.872 3.456,-3.072 7.296,-3.072 3.648,0 5.568,2.496 1.92,2.496 1.92,5.76 0,3.84 -1.728,8.448 0.768,-0.768 1.344,-1.536 0.768,-0.768 1.536,-1.536 6.72,-7.104 13.056,-10.368 6.528,-3.456 11.328,-3.456 3.648,0 6.144,1.92 2.688,1.92 2.688,5.184 0,3.84 -2.688,9.216 -2.688,5.376 -6.144,10.176 -3.264,4.8 -5.376,7.488 -1.344,1.92 -5.184,7.104 -3.84,4.992 -6.528,10.368 -1.344,2.304 -1.92,4.224 -0.384,1.728 -0.384,3.264 0,4.416 4.032,4.416 4.416,0 10.944,-5.184 5.184,-4.032 10.56,-10.368 5.568,-6.528 10.56,-14.784 0.576,-0.96 1.152,-0.96 0.576,-0.192 0.768,-0.192 1.344,0 0.768,2.304 -5.568,8.832 -11.712,16.32 -5.952,7.488 -12.096,11.904 -5.568,3.84 -11.136,3.84 z m 88.12808,43.584 q -3.456,0 -5.76,-2.304 -13.632,0.384 -20.736,-6.144 -6.912,-6.528 -8.448,-16.704 -0.768,1.728 -2.112,3.264 -1.152,1.536 -3.072,2.688 0.384,2.112 -1.344,3.84 -1.728,1.92 -4.608,1.92 -1.536,0 -3.264,-0.576 -1.536,-0.576 -4.224,-2.88 -2.688,-2.304 -3.264,-5.184 0.768,0.384 1.92,1.152 1.344,0.96 2.88,0.96 h 0.384 q 0.96,0 2.112,-0.576 1.152,-0.576 1.92,-1.344 0.576,-0.384 1.344,-0.768 0.96,-0.384 1.728,-0.384 1.152,0 2.496,0.96 0.768,0.384 1.536,1.536 3.456,-2.496 5.184,-7.68 -0.192,-2.496 -0.192,-5.184 0.192,-2.496 0.576,-5.184 -17.664,-1.344 -25.536,-9.6 -7.872,-8.256 -7.872,-19.2 0,-13.248 6.528,-22.848 6.528,-9.792 16.896,-16.128 10.56,-6.528 22.656,-9.984 12.288,-3.648 23.616,-4.8 -0.576,-1.536 -1.152,-3.072 -0.384,-1.728 -0.576,-3.264 -9.984,0 -19.008,-1.344 -9.024,-1.344 -15.168,-4.224 -1.152,-0.384 -2.496,-0.576 -1.152,-0.192 -2.496,-0.192 -3.648,0 -6.144,2.112 2.88,1.728 2.88,5.568 0,1.152 -0.576,2.688 -0.768,2.112 -2.112,3.264 -1.152,1.152 -2.112,2.112 -0.768,0.768 -1.536,2.112 -0.768,1.344 -0.768,2.688 0,1.536 1.344,2.688 -0.384,0.384 -1.152,0.384 -2.88,0 -4.608,-3.84 -1.536,-3.84 -1.536,-7.872 0,-5.184 3.072,-8.064 3.264,-2.88 5.952,-2.112 2.304,-2.688 5.568,-3.264 0.576,-0.192 1.152,-0.192 0.576,0 1.152,0 -8.448,-5.568 -12.288,-11.52 -3.84,-6.144 -3.84,-11.52 0,-7.104 5.376,-11.712 5.376,-4.8 13.632,-4.8 3.072,0 6.528,0.768 3.456,0.768 7.104,2.496 1.536,0.768 2.88,1.728 1.344,0.768 2.496,1.728 2.304,0.384 5.76,-0.768 3.456,-1.152 3.456,-3.456 v -0.384 q 0,-1.344 0.768,-1.536 0.96,-0.384 1.536,0.384 1.344,1.344 1.344,3.264 0,2.88 -3.648,4.8 -1.152,0.576 -2.88,0.576 -2.112,0 -3.648,-0.576 3.264,3.264 5.76,7.872 3.456,0 4.608,2.688 1.344,2.688 1.344,6.528 0,3.456 -2.304,7.872 -2.304,4.224 -5.184,4.8 -0.192,0 -0.576,0.192 -0.192,0 -0.384,0 -1.152,0 -1.536,-0.768 2.112,-0.768 2.112,-3.264 0,-1.92 -1.152,-3.84 -0.768,-1.344 -1.728,-2.88 -0.768,-1.728 -0.768,-4.416 0,-2.688 1.536,-4.416 1.536,-1.728 2.88,-2.112 -2.112,-3.84 -6.144,-7.104 -3.84,-3.456 -7.872,-5.376 -2.496,-1.152 -4.992,-1.536 -2.304,-0.576 -4.416,-0.576 -6.72,0 -11.136,4.224 -4.416,4.224 -4.416,10.368 0,4.8 3.072,9.984 3.264,5.184 10.368,9.792 6.72,4.224 15.744,6.528 9.024,2.112 19.008,2.304 -0.384,-4.416 0.768,-7.872 2.688,-10.368 9.6,-16.704 6.912,-6.528 15.552,-9.6 8.64,-3.072 16.512,-3.072 8.448,0 14.016,3.072 5.568,3.072 5.568,8.64 0,4.224 -3.072,8.64 -2.88,4.416 -8.64,7.68 -8.256,4.8 -20.16,7.488 -11.904,2.688 -24.192,3.264 0,2.88 0.96,6.144 h 0.192 q 2.304,0 6.144,0.384 4.032,0.384 7.68,1.536 3.648,0.96 5.184,3.072 0.768,1.152 0.768,1.92 0,1.728 -2.112,3.264 -1.92,1.344 -5.76,1.344 -2.688,0 -5.184,-0.768 -3.264,-0.96 -5.76,-2.88 -2.496,-1.92 -4.416,-4.416 -10.176,0.768 -20.544,4.608 -10.368,3.84 -19.008,10.56 -8.448,6.528 -13.824,15.744 -5.184,9.216 -5.184,20.544 0,8.832 4.992,15.936 5.184,6.912 15.936,9.024 0.96,-5.184 2.688,-10.56 1.728,-5.376 4.224,-10.56 -0.192,0.192 -0.576,0.384 -0.192,0.192 -0.384,0.576 -2.496,1.92 -6.912,1.92 -3.264,0 -4.608,-1.728 -1.344,-1.92 -1.344,-3.84 0,-2.496 1.152,-3.84 0.576,-0.576 0.96,-0.576 0.576,0 0.576,2.112 0,1.92 3.072,3.264 3.072,1.152 5.76,1.152 1.344,0 1.92,-0.192 0.384,-0.192 0.576,-0.192 0.192,0 0.384,-0.192 6.144,-12.288 15.744,-22.272 9.6,-9.984 21.312,-14.208 6.144,-2.304 11.904,-2.304 9.6,0 16.32,5.376 6.72,5.184 6.72,14.208 0,4.224 -2.112,9.408 -2.112,5.184 -6.528,10.752 -7.104,8.832 -18.048,14.4 -10.752,5.376 -22.848,7.872 -12.096,2.496 -23.232,2.496 h -2.688 q -0.576,4.032 -0.576,8.064 0,11.136 5.76,18.816 5.76,7.872 18.816,7.68 -0.768,-1.344 -0.768,-3.264 0,-3.264 2.304,-6.336 2.496,-2.88 7.104,-3.264 7.68,-0.576 10.944,-4.224 3.264,-3.456 4.032,-5.376 0.576,0.96 0.768,2.112 0.192,1.344 0.192,2.496 0,3.648 -1.536,7.104 -1.344,3.648 -2.496,5.376 -3.072,4.8 -6.912,6.912 -3.84,2.112 -7.104,2.112 z m 5.376,-129.408 q 13.056,-0.576 24.96,-4.416 12.096,-4.032 19.776,-10.752 6.912,-6.144 6.912,-11.328 -0.192,-3.84 -4.032,-5.76 -3.648,-1.92 -9.216,-1.92 -6.528,0 -14.208,2.88 -7.68,2.88 -14.016,9.024 -6.336,5.952 -9.024,15.36 -0.768,3.456 -1.152,6.912 z m 13.824,16.704 q 2.688,0 2.688,-1.344 0,-1.344 -3.264,-2.688 -3.264,-1.536 -10.56,-1.536 2.688,3.648 8.064,5.184 0.96,0.192 1.536,0.384 0.768,0 1.536,0 z m -49.344,71.616 q 3.456,0.384 7.296,0 13.248,-0.96 22.848,-4.608 9.792,-3.456 16.512,-8.832 6.912,-5.376 11.712,-11.328 4.8,-5.952 6.912,-11.136 2.304,-5.184 2.304,-9.408 0,-6.336 -4.224,-9.984 -4.224,-3.648 -11.136,-3.648 -2.496,0 -5.376,0.576 -2.88,0.384 -5.952,1.536 -9.984,3.648 -18.624,12.864 -8.448,9.024 -14.4,20.736 -5.76,11.712 -7.872,23.232 z m 87.35995,-4.032 q -5.376,0 -8.256,-4.032 -2.88,-4.224 -2.88,-10.752 0,-7.104 3.84,-16.512 2.112,-5.184 6.336,-10.56 4.224,-5.568 9.792,-10.176 5.568,-4.8 11.904,-7.68 6.528,-3.072 13.248,-3.072 5.184,0 7.104,2.688 1.92,2.688 1.92,6.528 0,3.648 -1.152,7.488 l 10.752,-16.32 q 1.344,-0.96 5.952,-0.96 3.456,0 6.528,0.768 3.264,0.768 1.92,2.304 -1.536,1.92 -5.376,5.952 -3.648,3.84 -8.064,9.216 -4.224,5.376 -8.064,11.328 -1.92,3.264 -5.76,9.6 -3.648,6.336 -5.76,12.096 -1.152,3.456 -1.152,5.568 0,4.032 3.456,4.032 1.92,0 5.184,-1.344 3.264,-1.536 6.336,-4.032 6.144,-4.992 10.752,-11.904 4.608,-7.104 8.256,-12.48 0.192,-0.192 0.384,-0.384 0.384,-0.192 1.152,-0.192 0.768,0 1.152,0.768 0.384,0.576 -0.384,1.536 -5.376,8.064 -10.56,15.168 -5.184,6.912 -10.56,11.136 -5.376,4.224 -11.712,4.224 -4.992,0 -8.064,-2.88 -2.88,-3.072 -2.88,-8.256 0,-2.304 0.384,-4.8 0.576,-2.496 1.344,-4.608 -3.072,4.032 -7.68,8.832 -4.416,4.8 -9.408,8.256 -4.992,3.456 -9.984,3.456 z m 1.728,-3.648 q 3.84,0 8.064,-3.072 4.416,-3.072 8.832,-7.872 4.416,-4.992 8.064,-10.56 3.072,-4.608 5.952,-9.792 3.072,-5.184 4.992,-10.176 2.112,-4.992 2.112,-9.024 0,-6.144 -4.416,-6.144 -3.072,0 -7.104,2.688 -4.032,2.688 -8.256,6.912 -4.032,4.224 -7.68,9.216 -3.456,4.8 -5.568,9.408 -0.576,1.152 -2.88,5.568 -2.112,4.416 -4.224,9.6 -1.92,5.184 -1.92,9.024 0,4.224 4.032,4.224 z m 82.55995,4.416 q -3.84,0 -6.912,-2.304 -2.88,-2.304 -2.88,-6.528 0,-4.8 2.496,-10.368 2.688,-5.568 5.76,-9.984 3.072,-4.608 4.032,-5.952 3.456,-4.608 6.336,-9.408 3.072,-4.992 3.072,-8.064 0,-2.88 -2.496,-3.648 -2.112,-0.768 -4.416,-1.536 -2.304,-0.96 -3.456,-1.152 -0.576,0.96 -2.688,4.608 -2.112,3.456 -4.992,8.064 -2.688,4.416 -5.184,8.64 -2.496,4.224 -3.84,6.336 -1.152,1.344 -1.92,1.344 -0.768,0 -1.152,-0.768 -0.192,-0.768 0.384,-1.728 5.76,-9.024 10.176,-16.896 4.416,-7.872 5.76,-9.984 -1.92,-1.344 -3.072,-4.608 -1.152,-3.264 -1.152,-6.72 0,-3.84 1.536,-6.912 1.536,-3.072 5.184,-3.072 2.496,0 3.456,2.496 0.96,2.304 0.96,5.376 0,2.688 -0.576,5.184 -0.576,2.496 -0.96,3.456 l -1.344,3.072 q 2.304,0.192 6.912,0.768 4.608,0.576 9.6,1.344 2.88,0.384 4.608,2.112 1.92,1.728 1.92,4.608 0,2.88 -1.92,6.912 -1.92,4.032 -6.528,9.216 -2.304,2.688 -5.568,7.104 -3.264,4.416 -6.144,8.64 -2.88,4.032 -4.224,6.336 -2.496,4.032 -2.496,7.296 0,3.648 4.032,3.648 4.416,0 9.408,-3.264 4.992,-3.456 9.792,-8.448 4.8,-4.992 8.448,-9.792 3.84,-4.992 5.568,-7.872 0.768,-1.344 2.112,-1.344 0.96,0 0.96,0.96 0,0.96 -0.384,1.536 -1.92,2.88 -6.336,8.64 -4.224,5.76 -10.176,11.712 -5.952,5.76 -13.248,9.024 -2.304,0.96 -4.608,1.344 -2.304,0.576 -3.84,0.576 z m 42.62397,-0.576 q -5.568,0 -9.984,-3.072 -4.224,-3.264 -4.224,-9.408 0,-3.264 0.384,-5.76 0.384,-2.688 1.728,-5.568 1.536,-3.072 4.416,-7.68 3.072,-4.608 8.256,-11.712 l 14.016,-19.776 h -10.368 l 1.536,-2.88 h 10.944 l 15.36,-22.08 q 4.224,-3.072 10.176,-3.072 2.88,0 5.76,0.96 l -18.24,24 h 13.632 l -1.536,2.88 h -14.208 l -15.936,22.272 q -1.152,1.536 -3.84,5.376 -2.688,3.648 -5.76,8.448 -2.88,4.8 -4.992,9.6 -2.112,4.608 -2.112,8.448 0,6.336 6.144,6.336 3.264,0 7.296,-1.92 8.832,-3.84 14.976,-10.944 6.336,-7.296 12.096,-16.32 0.576,-0.768 1.728,-0.768 0.576,0 0.96,0.576 0.384,0.576 0,1.344 -3.456,5.376 -7.68,11.136 -4.224,5.76 -9.6,10.56 -5.184,4.8 -11.712,7.296 -4.224,1.728 -9.216,1.728 z m 64.51203,0.576 q -10.56,0 -10.56,-10.56 0,-3.84 2.88,-9.216 3.072,-5.376 7.296,-10.944 4.224,-5.76 8.064,-10.368 3.84,-4.608 5.76,-6.72 5.76,-6.912 5.76,-9.792 0,-2.112 -2.496,-2.112 -1.92,0 -3.648,0.768 -7.104,2.496 -14.4,9.216 -7.296,6.72 -14.016,15.552 -6.528,8.64 -11.712,17.28 -5.184,8.64 -8.256,14.976 -0.192,0.576 -2.112,0.768 -1.728,0.384 -3.84,0.384 -1.92,0 -3.456,-0.384 -1.344,-0.192 -1.344,-0.768 0,0 3.456,-6.336 3.456,-6.336 9.408,-16.704 5.952,-10.56 13.44,-23.232 7.68,-12.672 15.936,-25.344 6.72,-10.368 13.824,-20.736 7.104,-10.368 15.552,-19.392 8.64,-9.216 19.584,-15.36 4.224,-2.496 7.488,-3.264 3.456,-0.96 5.952,-0.96 2.496,0 4.416,0.576 4.416,1.152 4.416,6.72 0,4.224 -2.304,10.176 -2.304,5.76 -5.952,11.52 -3.648,5.568 -7.488,9.984 -10.368,11.328 -20.352,17.664 -9.984,6.144 -18.048,8.832 -7.872,2.496 -12.096,3.456 -1.536,2.112 -4.416,6.528 -2.88,4.224 -6.336,9.216 -1.92,2.688 -1.92,3.264 0,0.192 0.768,-0.192 0.768,-0.576 1.728,-1.536 4.992,-4.992 10.368,-9.216 5.568,-4.224 11.136,-6.336 4.032,-1.536 8.064,-1.536 3.84,0 6.72,1.536 3.072,1.344 3.072,4.608 0,2.88 -2.88,6.912 -2.496,3.264 -7.104,9.408 -4.416,6.144 -9.216,13.056 -4.608,6.912 -7.872,13.056 -3.264,5.952 -3.264,9.024 0,2.88 2.688,2.88 3.84,0 8.448,-3.072 4.8,-3.264 9.6,-7.872 4.8,-4.8 8.64,-9.792 4.032,-4.992 6.336,-8.64 0.768,-0.384 1.344,-0.384 1.92,0 0.96,2.112 -5.76,9.024 -12.48,16.128 -6.72,7.104 -13.44,11.136 -6.528,4.032 -12.096,4.032 z m 3.648,-67.968 q 3.648,-0.768 10.176,-3.648 6.72,-2.88 14.976,-8.64 8.448,-5.76 17.088,-15.36 3.456,-3.84 7.872,-9.6 4.608,-5.76 6.912,-10.56 1.536,-3.456 2.112,-5.76 0.768,-2.496 0.768,-4.032 0,-3.456 -3.072,-3.456 -3.072,0 -7.68,2.88 -4.608,2.688 -8.256,5.952 -5.952,5.376 -12.48,13.248 -6.528,7.68 -12.48,15.744 -5.76,8.064 -10.176,14.4 -4.224,6.336 -5.76,8.832 z"
       id="text3"
       transform="scale(0.26458333)"
       aria-label="GreenEarth" />
  </g>
</svg>
