<?xml version="1.0" encoding="UTF-8" standalone="no"?>
<!-- Created with Inkscape (http://www.inkscape.org/) -->

<svg
   width="202.03156mm"
   height="61.010799mm"
   viewBox="0 0 202.03157 61.010799"
   version="1.1"
   id="svg1"
   inkscape:version="1.4.3 (0d15f75, 2025-12-25)"
   sodipodi:docname="logo-crema.svg"
   inkscape:export-filename="logo.svg"
   inkscape:export-xdpi="96"
   inkscape:export-ydpi="96"
   xmlns:inkscape="http://www.inkscape.org/namespaces/inkscape"
   xmlns:sodipodi="http://sodipodi.sourceforge.net/DTD/sodipodi-0.dtd"
   xmlns="http://www.w3.org/2000/svg"
   xmlns:svg="http://www.w3.org/2000/svg">
  <sodipodi:namedview
     id="namedview1"
     pagecolor="#505050"
     bordercolor="#ffffff"
     borderopacity="1"
     inkscape:showpageshadow="0"
     inkscape:pageopacity="0"
     inkscape:pagecheckerboard="1"
     inkscape:deskcolor="#505050"
     inkscape:document-units="mm"
     inkscape:zoom="0.68862935"
     inkscape:cx="310.03616"
     inkscape:cy="479.93888"
     inkscape:window-width="1920"
     inkscape:window-height="991"
     inkscape:window-x="-9"
     inkscape:window-y="-9"
     inkscape:window-maximized="1"
     inkscape:current-layer="layer1">
    <inkscape:page
       x="9.7013539e-29"
       y="0"
       width="202.03156"
       height="61.010799"
       id="page1"
       margin="0"
       bleed="0" />
  </sodipodi:namedview>
  <defs
     id="defs1" />
  <g
     inkscape:label="Livello 1"
     inkscape:groupmode="layer"
     id="layer1"
     transform="translate(5.9770108,-45.565091)">
    <path
       style="font-size:192px;font-family:'Fleur De Leah';-inkscape-font-specification:'Fleur De Leah, Normal';white-space:pre;fill:#fcdd9a;fill-opacity:0.69;stroke-width:0.264583"
       d="m 14.850989,106.57589 q -0.4572,0 -0.9144,-0.254 -0.4572,-0.2032 -0.762,-0.7112 l -0.1016,-0.1016 q -0.1016,0 -0.254,0 -0.1016,0.0508 -0.2032,0.0508 -0.9652,0 -1.6256,-0.5588 -0.6096,-0.508 -0.6096,-1.3208 0,-0.9144 0.8128,-1.8796 0.254,-0.3048 0.6604,-0.6604 0.4572,-0.3048 0.9652,-0.6096 -0.9144,0.2032 -1.8796,0.3048 -0.9652,0.1016 -1.9812,0.1016 -0.9143999,0 -1.8795999,-0.1016 -0.9652,-0.0508 -1.9812,-0.254 -3.8608,-0.6604 -6.2991999,-2.6416 -2.4384,-1.9304 -3.6068,-4.6228 -1.1684,-2.6416 -1.1684,-5.4356 0,-1.9304 0.508,-3.81 0.508,-1.8288 1.4732,-3.4036 1.27,-2.032 3.20039997,-3.3528 1.93039993,-1.3716 4.16559993,-1.9812 2.286,-0.6096 4.4196,-0.508 1.1175999,-0.1016 1.8287999,-0.6604 0.762,-0.5588 1.1176,-1.2192 -0.7112,-0.2032 -1.0668,-0.863599 -0.3556,-0.7112 -0.3556,-1.4224 0,-0.254 0,-0.4572 0.0508,-0.2032 0.1016,-0.4064 0.254,-0.8636 0.6096,-1.3208 0.4064,-0.508 0.762,-0.8636 0.3048,-0.3048 0.508,-0.8128 0.254,-0.508 0.254,-1.016 0,-0.7112 -0.5588,-1.0668 0.1524,-0.1524 0.4572,-0.1524 0.762,0 1.3208,0.762 0.6096,0.762 0.9144,1.8796 0.3048,1.0668 0.3048,2.1336 0,1.6256 -0.9144,2.6416 -0.8636,1.015999 -1.778,1.066799 -0.6096,1.3716 -2.0828,1.9304 0.254,0.0508 0.508,0.1016 0.3048,0.0508 0.5588,0.1524 2.54,0.762 4.2672,2.6416 1.7272,1.8288 1.7272,4.4704 0,1.7272 -0.8128,3.556 0.508,0.0508 1.1684,0.254 0.6604,0.2032 0.9652,1.016 0.1524,0.3556 0.1524,0.7112 0,0.9144 -0.6604,1.9304 -0.6604,1.0668 -1.6764,1.9812 -1.016,0.9144 -2.1336,1.5748 -1.0668,0.6604 -2.1844,0.6604 -0.3048,0 -0.4064,-0.0508 0.7112,-0.254 0.9144,-0.9652 0.254,-0.6604 0.254,-1.4732 0,-0.762 -0.1524,-1.524 -0.1016,-0.762 -0.254,-1.27 -0.1524,-0.6096 -0.1524,-1.1684 0,-0.9652 0.4572,-1.6256 0.4572,-0.6604 1.1684,-0.7112 0.8636,-0.1016 1.3208,0.1016 0.4572,0.254 0.8128,0.4572 0.4064,-0.8636 0.5588,-1.6256 0.1524,-0.762 0.1524,-1.4732 0,-2.54 -1.778,-4.2672 -1.7272,-1.778 -4.2672,-2.3876 -1.1176,-0.3048 -2.4383999,-0.3048 -2.6416,0 -5.2324,1.3716 -2.53999994,1.3716 -4.1655999,4.064 -2.2352,3.6576 -2.2352,7.8232 0,1.6764 0.4064,3.302 0.4572,1.6256 1.4224,2.9972 -0.0508,-0.2032 -0.0508,-0.3556 0,-0.1524 0,-0.3556 0,-1.1684 0.4572,-1.9812 -0.1524,-0.1016 -0.3556,-0.3048 -0.254,-0.3048 -0.254,-0.9144 0,-0.5588 0.3048,-1.2192 0.3048,-0.6096 0.9144,-1.1176 0.60959997,-0.508 1.57479996,-0.8636 0.96519994,-0.3048 1.93039994,-0.3048 1.1176,0 1.6256,0.508 0.3048,0.2032 0.3048,0.4064 0.0508,0.2032 0,0.3048 -0.2032,-0.1524 -0.508,-0.1524 -0.508,0 -1.016,0.4572 -0.4572,0.508 -0.6096,0.9652 -0.1524,0.3556 -0.4064,0.8128 -0.254,0.508 -0.81279995,1.0668 -0.66039999,0.6604 -1.62559995,0.6604 -0.4064,0 -0.5588,-0.0508 -0.4572,1.0668 -0.4572,2.032 0,0.9144 0.3048,1.3716 1.16839996,1.2192 2.7939999,2.0828 1.6764,0.9144 3.9624,1.3208 0.6096,0.1016 1.2192,0.1524 0.6096,0.0508 1.1684,0.0508 3.2511999,0 6.0451999,-1.4732 2.794,-1.4224 5.1308,-3.9116 2.3368,-2.4384 4.318,-5.4864 1.9812,-2.9972 3.6068,-6.2484 1.6256,-3.2004 2.9464,-6.1976 1.3716,-2.9972 2.4892,-5.283199 1.016,-2.0828 2.1844,-4.0132 1.1684,-1.9812 2.4384,-3.5052 -1.4732,1.4224 -3.0988,3.2004 -1.6256,1.7272 -3.4036,3.302 -1.778,1.5748 -3.7084,2.590799 -1.9304,1.016 -4.0132,1.016 -2.6416,0 -3.9116,-1.6256 -1.27,-1.625599 -1.27,-4.013199 0,-1.9304 0.762,-3.9624 l -0.3556,-0.1524 q -2.9464,-1.27 -4.318,-3.4544 -1.3208,-2.1844 -1.7272,-4.064 -0.2032,-0.508 -0.6096,-0.9144 -0.3556,-0.4572 -0.9144,-0.8128 -0.5588,0.7112 -1.524,0.7112 -0.7111999,0 -1.3207999,-0.3048 -0.4064,-0.1524 -1.016,-0.8636 -0.6096,-0.762 -1.3208,-1.27 -0.7112,-0.5588 -1.4732,-0.5588 -0.7112,0 -1.2192,0.508 -0.1016,-0.1016 -0.1016,-0.254 0,-0.254 0.254,-0.5588 0.508,-0.5588 1.524,-0.9144 1.0668,-0.3556 2.2352,-0.3556 1.3208,0 2.3876,0.4572 0.9651999,0.4572 1.4223999,1.1684 0.4572,0.7112 0.4572,1.3716 0,0.254 -0.0508,0.4064 0.5588,0.3048 1.0668,0.9144 0,-0.254 -0.0508,-0.4064 0,-0.2032 0,-0.4064 0,-1.7272 0.9144,-3.1496 0.9144,-1.4732 2.3368,-2.3876 1.4224,-0.9652 2.8956,-1.2192 0.0508,-0.1016 0.0508,-0.1524 0,-0.1016 0.0508,-0.1524 0.8636,-1.8796 3.0988,-1.8796 1.0668,0 2.2352,0.5588 1.1684,0.5588 2.032,1.6764 0.8128,0.9652 1.8796,0.9652 0.3556,0 0.5588,-0.1524 0.6096,-0.4572 0.6096,-0.1524 0,0.7112 -0.6604,1.3208 -0.6096,0.6096 -1.3208,0.7112 -0.2032,0.0508 -0.4064,0.0508 -0.1524,0 -0.3556,0 -1.27,0 -2.2352,-0.4064 -0.9144,-0.4572 -1.7272,-0.9652 0.1016,0.3048 0.1016,0.508 0,0.4572 -0.254,0.8636 -0.254,0.4064 -0.6604,0.508 h -0.254 q -0.3048,0 -0.3048,-0.1016 0,-0.1524 0.3556,-0.3048 0.3048,-0.1524 0.3048,-0.508 0,-0.5588 -0.508,-1.1684 -0.508,-0.6096 -0.9144,-0.8128 -0.4064,-0.1016 -0.7112,-0.1016 -0.3048,0 -0.4572,0.0508 -1.2192,0.254 -2.4892,1.1684 -1.27,0.9144 -2.1336,2.286 -0.8128,1.3208 -0.8128,2.9464 0,0.8128 0.1016,1.524 0.1016,0.7112 0.254,1.4224 0.1016,-0.4064 0.3556,-0.7112 0.254,-0.3556 0.6604,-0.508 0.1524,-0.1016 0.3048,-0.1016 0.2032,0 0.4064,0 1.1684,0 1.4224,0.3556 0.3048,0.2032 0.254,0.254 -0.0508,0 -0.1016,0.1524 -0.1524,-0.0508 -0.4572,-0.0508 -0.762,0 -1.5748,0.4572 -0.762,0.4064 -0.762,1.016 v 0.508 q 0.762,1.5748 2.032,2.794 1.27,1.1684 2.8448,1.8796 1.1684,-2.6924 3.556,-5.2324 2.4384,-2.54 5.9944,-4.0132 1.6764,-0.7112 3.048,-1.016 1.4224,-0.3048 2.54,-0.3048 2.3876,0 3.5052,1.1176 1.1176,1.1176 1.1176,2.7432 0,1.8796 -1.524,3.9624 -1.4732,2.0828 -4.4196,3.4036 -1.6256,0.7112 -3.5052,1.0668 -1.8796,0.3556 -3.7592,0.3556 -1.016,0 -2.032,-0.1016 -0.9652,-0.1016 -1.9304,-0.3048 -1.016,2.4892 -1.016,4.4704 0,1.524 0.7112,2.4892 0.762,0.914399 2.3368,0.914399 2.0828,0 4.064,-1.269999 2.032,-1.3208 3.9116,-3.2004 1.8796,-1.9304 3.6576,-3.81 1.778,-1.8796 3.4544,-3.1496 1.6764,-1.3208 3.2512,-1.3208 0.2032,-0.0508 0.508,-0.0508 0.7112,0.0508 1.1176,0.4572 0.4064,0.4064 0.4064,0.8128 -0.0508,0.4572 -0.4572,0.7112 -0.4064,0.254 -0.8128,0.254 -0.508,0 -0.8128,-0.2032 -0.3048,-0.254 -0.5588,-0.3048 -0.2032,-0.1016 -0.3556,-0.1524 -0.1524,-0.0508 -0.3048,-0.0508 -0.4064,0 -0.9652,0.3556 -1.524,1.27 -2.8448,3.6576 -1.3208,2.3368 -2.5908,5.588 -1.6764,4.317999 -3.3528,9.093199 -1.6256,4.7752 -4.1656,9.0932 v 0.0508 q -0.0508,0.1016 -0.0508,0.4572 0,0.6604 0.3048,1.4224 0.3048,0.762 0.8128,0.762 h 0.1016 q 0.1524,0 0.1524,0.1016 0,0.1524 -0.3556,0.3048 -0.3048,0.1016 -0.5588,0.1016 -0.3048,0 -0.6096,-0.2032 -0.3048,-0.1524 -0.4572,-0.508 -0.0508,-0.1524 -0.1016,-0.3048 0,-0.1524 0,-0.3048 0,-0.5588 0.1524,-0.9144 -2.0828,3.3528 -4.7752,5.842 -2.6416,2.54 -6.096,3.7084 -0.5588,0.3048 -1.3208,0.762 -0.762,0.4572 -1.27,1.016 -0.3556,0.4572 -0.6096,0.9144 -0.254,0.508 -0.254,0.9144 0,0.508 0.4572,0.9144 0.4572,0.4572 1.4732,0.5588 -0.1016,-0.4064 -0.1016,-0.5588 0,-0.9144 0.6604,-1.6256 0.6604,-0.7112 1.4224,-0.508 0.6604,0.2032 1.3716,0.2032 1.4732,0 2.286,-0.7112 0.8636,-0.6604 1.1684,-1.016 0.0508,0.1524 0.0508,0.508 0,1.1684 -0.8128,2.286 -0.762,1.1684 -1.3208,1.6764 -0.3556,0.3048 -1.1684,0.7112 -0.8128,0.4572 -1.6764,0.4572 z m 9.8552,-41.706799 q 1.8288,0 3.6068,-0.3556 1.778,-0.3556 3.3528,-1.016 2.9464,-1.3208 4.2672,-3.0988 1.3716,-1.778 1.3716,-3.3528 0,-1.3716 -0.9652,-2.286 -0.9144,-0.9652 -2.6924,-0.9652 -1.0668,0 -2.4384,0.4572 -1.3208,0.4064 -2.8956,1.3716 -2.1844,1.3208 -4.1148,3.81 -1.9304,2.4384 -3.0988,5.08 0.8636,0.2032 1.778,0.3048 0.9144,0.0508 1.8288,0.0508 z m 16.66236,18.389599 q -1.016,0 -1.8288,-0.6096 -0.762,-0.6096 -0.762,-1.7272 0,-1.27 0.6604,-2.7432 0.7112,-1.4732 1.524,-2.6416 0.8128,-1.2192 1.0668,-1.5748 0.9144,-1.2192 1.6764,-2.489199 0.8128,-1.3208 0.8128,-2.1336 0,-0.762 -0.6604,-0.9652 -0.5588,-0.2032 -1.1684,-0.4064 -0.6096,-0.254 -0.9144,-0.3048 -0.1524,0.254 -0.7112,1.2192 -0.5588,0.9144 -1.3208,2.1336 -0.7112,1.168399 -1.3716,2.285999 -0.6604,1.1176 -1.016,1.6764 -0.3048,0.3556 -0.508,0.3556 -0.2032,0 -0.3048,-0.2032 -0.0508,-0.2032 0.1016,-0.4572 1.524,-2.3876 2.6924,-4.470399 1.1684,-2.0828 1.524,-2.6416 -0.508,-0.3556 -0.8128,-1.2192 -0.3048,-0.8636 -0.3048,-1.778 0,-1.016 0.4064,-1.8288 0.4064,-0.8128 1.3716,-0.8128 0.6604,0 0.9144,0.6604 0.254,0.6096 0.254,1.4224 0,0.7112 -0.1524,1.3716 -0.1524,0.6604 -0.254,0.9144 l -0.3556,0.8128 q 0.6096,0.0508 1.8288,0.2032 1.2192,0.1524 2.54,0.3556 0.762,0.1016 1.2192,0.5588 0.508,0.4572 0.508,1.2192 0,0.762 -0.508,1.8288 -0.508,1.066799 -1.7272,2.438399 -0.6096,0.7112 -1.4732,1.8796 -0.8636,1.1684 -1.6256,2.286 -0.762,1.0668 -1.1176,1.6764 -0.6604,1.0668 -0.6604,1.9304 0,0.9652 1.0668,0.9652 1.1684,0 2.4892,-0.8636 1.3208,-0.9144 2.5908,-2.2352 1.27,-1.3208 2.2352,-2.5908 1.016,-1.3208 1.4732,-2.0828 0.2032,-0.3556 0.5588,-0.3556 0.254,0 0.254,0.254 0,0.254 -0.1016,0.4064 -0.508,0.762 -1.6764,2.286 -1.1176,1.524 -2.6924,3.0988 -1.5748,1.524 -3.5052,2.3876 -0.6096,0.254 -1.2192,0.3556 -0.6096,0.1524 -1.016,0.1524 z m 12.903194,-0.0508 q -1.320799,0 -2.489199,-0.6096 -1.1684,-0.6604 -1.7272,-2.0828 -0.3556,-0.9144 -0.3556,-2.0828 0,-1.4224 0.5588,-2.794 0.7112,-1.6764 2.0828,-3.302 1.3716,-1.625599 3.047999,-2.946399 1.6764,-1.3208 3.3528,-2.0828 1.6764,-0.8128 2.9972,-0.8128 1.1176,0 1.778,0.6096 0.4572,0.4572 0.4572,1.3208 0,1.1176 -0.8636,2.5908 -0.8128,1.422399 -2.3368,2.489199 -0.9652,0.6604 -2.286,1.1176 -1.27,0.4064 -2.6924,0.4064 -0.4572,0 -0.9652,-0.0508 -0.4572,-0.0508 -0.9144,-0.1524 -0.355599,0.4064 -0.863599,1.3208 -0.4572,0.8636 -0.8128,1.9304 -0.3048,1.0668 -0.3048,2.032 0.0508,1.3208 0.7112,1.8796 0.7112,0.508 1.676399,0.508 1.9304,0 3.7084,-1.2192 1.8288,-1.27 3.302,-3.0988 1.4732,-1.8288 2.4892,-3.5052 0.1524,-0.2032 0.254,-0.2032 0.1016,-0.0508 0.1524,-0.0508 0.1524,0 0.254,0.1524 0.1524,0.1524 0.0508,0.4064 -0.6604,1.0668 -1.7272,2.54 -1.016,1.4732 -2.4384,2.8448 -1.3716,1.3208 -3.0988,2.1844 -0.6604,0.3556 -1.4732,0.508 -0.762,0.1524 -1.524,0.1524 z m 1.0668,-8.89 q 2.3876,0 4.318,-1.2192 1.9812,-1.269999 2.8448,-3.047999 0.254,-0.4064 0.3048,-0.762 0.1016,-0.3556 0.1016,-0.5588 0,-0.8636 -0.9652,-0.8636 -0.6096,0 -1.3716,0.3048 -0.7112,0.3048 -1.27,0.7112 -0.9652,0.7112 -2.032,1.778 -1.016,1.016 -1.8288,2.031999 -0.8128,0.9652 -1.2192,1.524 0.254,0.0508 0.5588,0.1016 0.3048,0 0.5588,0 z m 11.988798,8.89 q -1.3208,0 -2.4892,-0.6096 -1.1684,-0.6604 -1.7272,-2.0828 -0.3556,-0.9144 -0.3556,-2.0828 0,-1.4224 0.5588,-2.794 0.7112,-1.6764 2.0828,-3.302 1.3716,-1.625599 3.048,-2.946399 1.6764,-1.3208 3.3528,-2.0828 1.6764,-0.8128 2.9972,-0.8128 1.1176,0 1.778,0.6096 0.4572,0.4572 0.4572,1.3208 0,1.1176 -0.8636,2.5908 -0.8128,1.422399 -2.3368,2.489199 -0.9652,0.6604 -2.286,1.1176 -1.27,0.4064 -2.6924,0.4064 -0.4572,0 -0.9652,-0.0508 -0.4572,-0.0508 -0.9144,-0.1524 -0.3556,0.4064 -0.8636,1.3208 -0.4572,0.8636 -0.8128,1.9304 -0.3048,1.0668 -0.3048,2.032 0.0508,1.3208 0.7112,1.8796 0.7112,0.508 1.6764,0.508 1.9304,0 3.7084,-1.2192 1.8288,-1.27 3.302,-3.0988 1.4732,-1.8288 2.4892,-3.5052 0.1524,-0.2032 0.254,-0.2032 0.1016,-0.0508 0.1524,-0.0508 0.1524,0 0.254,0.1524 0.1524,0.1524 0.0508,0.4064 -0.6604,1.0668 -1.7272,2.54 -1.016,1.4732 -2.4384,2.8448 -1.3716,1.3208 -3.0988,2.1844 -0.6604,0.3556 -1.4732,0.508 -0.762,0.1524 -1.524,0.1524 z m 1.0668,-8.89 q 2.3876,0 4.318,-1.2192 1.9812,-1.269999 2.8448,-3.047999 0.254,-0.4064 0.3048,-0.762 0.1016,-0.3556 0.1016,-0.5588 0,-0.8636 -0.9652,-0.8636 -0.6096,0 -1.3716,0.3048 -0.7112,0.3048 -1.27,0.7112 -0.9652,0.7112 -2.032,1.778 -1.016,1.016 -1.8288,2.031999 -0.8128,0.9652 -1.2192,1.524 0.254,0.0508 0.5588,0.1016 0.3048,0 0.5588,0 z m 20.726397,9.144 q -1.2192,0 -2.0828,-0.762 -0.8636,-0.8128 -0.8636,-2.286 0,-1.778 1.016,-3.6576 1.016,-1.9304 2.3876,-3.81 1.3716,-1.879599 2.3876,-3.454399 0.5588,-0.9652 0.5588,-1.5748 0,-0.7112 -0.6604,-0.7112 -0.508,0 -1.524,0.6604 -1.016,0.6096 -2.5908,2.1336 -1.524,1.524 -2.9464,3.403599 -1.3716,1.8288 -2.54,3.6576 -1.1176,1.8288 -1.9812,3.3528 -0.8128,1.524 -1.2192,2.3368 -0.3556,0.1524 -0.9144,0.2032 -0.508,0.0508 -1.0668,0.0508 -1.27,0 -1.6764,-0.1524 0.6604,-0.9144 1.7272,-2.54 1.1176,-1.6256 2.3368,-3.5052 1.2192,-1.9304 2.2352,-3.6068 0.5588,-0.9652 1.2192,-2.082799 0.6604,-1.1176 1.1176,-2.0828 0.4572,-1.016 0.4572,-1.524 0,-0.508 -0.4064,-0.508 -0.254,0 -0.6604,0.254 -0.4064,0.254 -0.762,0.6604 -0.762,0.762 -1.9812,2.3876 -1.1684,1.5748 -3.0988,4.673599 -0.1524,0.254 -0.508,0.254 -0.4064,0 -0.2032,-0.5588 0.9144,-1.4732 1.8796,-2.946399 0.9652,-1.524 1.9304,-2.8448 1.016,-1.3208 1.8796,-2.0828 0.9144,-0.8128 1.9304,-0.8128 0.9652,0 1.4732,0.6604 0.508,0.6604 0.508,1.524 0,1.016 -0.4572,2.2352 0.2032,-0.2032 0.3556,-0.4064 0.2032,-0.2032 0.4064,-0.4064 1.778,-1.8796 3.4544,-2.7432 1.7272,-0.9144 2.9972,-0.9144 0.9652,0 1.6256,0.508 0.7112,0.508 0.7112,1.3716 0,1.016 -0.7112,2.4384 -0.7112,1.4224 -1.6256,2.692399 -0.8636,1.27 -1.4224,1.9812 -0.3556,0.508 -1.3716,1.8796 -1.016,1.3208 -1.7272,2.7432 -0.3556,0.6096 -0.508,1.1176 -0.1016,0.4572 -0.1016,0.8636 0,1.1684 1.0668,1.1684 1.1684,0 2.8956,-1.3716 1.3716,-1.0668 2.794,-2.7432 1.4732,-1.7272 2.794,-3.9116 0.1524,-0.254 0.3048,-0.254 0.1524,-0.0508 0.2032,-0.0508 0.3556,0 0.2032,0.6096 -1.4732,2.3368 -3.0988,4.318 -1.5748,1.9812 -3.2004,3.1496 -1.4732,1.016 -2.9464,1.016 z m 23.317222,11.5316 q -0.9144,0 -1.524,-0.6096 -3.6068,0.1016 -5.4864,-1.6256 -1.8288,-1.7272 -2.2352,-4.4196 -0.2032,0.4572 -0.5588,0.8636 -0.3048,0.4064 -0.8128,0.7112 0.1016,0.5588 -0.3556,1.016 -0.4572,0.508 -1.2192,0.508 -0.406401,0 -0.863601,-0.1524 -0.4064,-0.1524 -1.1176,-0.762 -0.7112,-0.6096 -0.8636,-1.3716 0.2032,0.1016 0.508,0.3048 0.3556,0.254 0.762,0.254 h 0.1016 q 0.254,0 0.5588,-0.1524 0.3048,-0.1524 0.508,-0.3556 0.1524,-0.1016 0.355601,-0.2032 0.254,-0.1016 0.4572,-0.1016 0.3048,0 0.6604,0.254 0.2032,0.1016 0.4064,0.4064 0.9144,-0.6604 1.3716,-2.032 -0.0508,-0.6604 -0.0508,-1.3716 0.0508,-0.6604 0.1524,-1.3716 -4.673601,-0.3556 -6.756401,-2.54 -2.0828,-2.1844 -2.0828,-5.08 0,-3.5052 1.7272,-6.045199 1.7272,-2.5908 4.470401,-4.2672 2.794,-1.7272 5.9944,-2.6416 3.2512,-0.9652 6.2484,-1.27 -0.1524,-0.4064 -0.3048,-0.8128 -0.1016,-0.4572 -0.1524,-0.8636 -2.6416,0 -5.0292,-0.3556 -2.3876,-0.3556 -4.0132,-1.1176 -0.3048,-0.1016 -0.6604,-0.1524 -0.3048,-0.0508 -0.6604,-0.0508 -0.9652,0 -1.6256,0.5588 0.762,0.4572 0.762,1.4732 0,0.3048 -0.1524,0.7112 -0.2032,0.5588 -0.5588,0.8636 -0.3048,0.3048 -0.558801,0.5588 -0.2032,0.2032 -0.4064,0.5588 -0.2032,0.3556 -0.2032,0.7112 0,0.4064 0.3556,0.7112 -0.1016,0.1016 -0.3048,0.1016 -0.762,0 -1.2192,-1.016 -0.4064,-1.016 -0.4064,-2.0828 0,-1.3716 0.8128,-2.1336 0.8636,-0.762 1.574801,-0.5588 0.6096,-0.7112 1.4732,-0.8636 0.1524,-0.0508 0.3048,-0.0508 0.1524,0 0.3048,0 -2.235201,-1.4732 -3.251201,-3.048 -1.016,-1.6256 -1.016,-3.048 0,-1.8796 1.4224,-3.0988 1.422401,-1.27 3.606801,-1.27 0.8128,0 1.7272,0.2032 0.9144,0.2032 1.8796,0.6604 0.4064,0.2032 0.762,0.4572 0.3556,0.2032 0.6604,0.4572 0.6096,0.1016 1.524,-0.2032 0.9144,-0.3048 0.9144,-0.9144 v -0.1016 q 0,-0.3556 0.2032,-0.4064 0.254,-0.1016 0.4064,0.1016 0.3556,0.3556 0.3556,0.8636 0,0.762 -0.9652,1.27 -0.3048,0.1524 -0.762,0.1524 -0.5588,0 -0.9652,-0.1524 0.8636,0.8636 1.524,2.0828 0.9144,0 1.2192,0.7112 0.3556,0.7112 0.3556,1.7272 0,0.9144 -0.6096,2.0828 -0.6096,1.1176 -1.3716,1.27 -0.0508,0 -0.1524,0.0508 -0.0508,0 -0.1016,0 -0.3048,0 -0.4064,-0.2032 0.5588,-0.2032 0.5588,-0.8636 0,-0.508 -0.3048,-1.016 -0.2032,-0.3556 -0.4572,-0.762 -0.2032,-0.4572 -0.2032,-1.1684 0,-0.7112 0.4064,-1.1684 0.4064,-0.4572 0.762,-0.5588 -0.5588,-1.016 -1.6256,-1.8796 -1.016,-0.9144 -2.0828,-1.4224 -0.6604,-0.3048 -1.3208,-0.4064 -0.6096,-0.1524 -1.1684,-0.1524 -1.778,0 -2.9464,1.1176 -1.168401,1.1176 -1.168401,2.7432 0,1.27 0.812801,2.6416 0.8636,1.3716 2.7432,2.5908 1.778,1.1176 4.1656,1.7272 2.3876,0.5588 5.0292,0.6096 -0.1016,-1.1684 0.2032,-2.0828 0.7112,-2.7432 2.54,-4.4196 1.8288,-1.7272 4.1148,-2.54 2.286,-0.8128 4.3688,-0.8128 2.2352,0 3.7084,0.8128 1.4732,0.8128 1.4732,2.286 0,1.1176 -0.8128,2.286 -0.762,1.1684 -2.286,2.032 -2.1844,1.27 -5.334,1.9812 -3.1496,0.7112 -6.4008,0.8636 0,0.762 0.254,1.6256 h 0.0508 q 0.6096,0 1.6256,0.1016 1.0668,0.1016 2.032,0.4064 0.9652,0.254 1.3716,0.8128 0.2032,0.3048 0.2032,0.508 0,0.4572 -0.5588,0.8636 -0.508,0.3556 -1.524,0.3556 -0.7112,0 -1.3716,-0.2032 -0.8636,-0.254 -1.524,-0.762 -0.6604,-0.508 -1.1684,-1.1684 -2.6924,0.2032 -5.4356,1.2192 -2.7432,1.016 -5.0292,2.794 -2.2352,1.7272 -3.657601,4.1656 -1.3716,2.438399 -1.3716,5.435599 0,2.3368 1.3208,4.2164 1.371601,1.8288 4.216401,2.3876 0.254,-1.3716 0.7112,-2.794 0.4572,-1.4224 1.1176,-2.794 -0.0508,0.0508 -0.1524,0.1016 -0.0508,0.0508 -0.1016,0.1524 -0.6604,0.508 -1.8288,0.508 -0.8636,0 -1.2192,-0.4572 -0.3556,-0.508 -0.3556,-1.016 0,-0.6604 0.3048,-1.016 0.1524,-0.1524 0.254,-0.1524 0.1524,0 0.1524,0.5588 0,0.508 0.8128,0.8636 0.8128,0.3048 1.524,0.3048 0.3556,0 0.508,-0.0508 0.1016,-0.0508 0.1524,-0.0508 0.0508,0 0.1016,-0.0508 1.6256,-3.2512 4.1656,-5.8928 2.54,-2.641599 5.6388,-3.759199 1.6256,-0.6096 3.1496,-0.6096 2.54,0 4.318,1.4224 1.778,1.3716 1.778,3.759199 0,1.1176 -0.5588,2.4892 -0.5588,1.3716 -1.7272,2.8448 -1.8796,2.3368 -4.7752,3.81 -2.8448,1.4224 -6.0452,2.0828 -3.2004,0.6604 -6.1468,0.6604 h -0.7112 q -0.1524,1.0668 -0.1524,2.1336 0,2.9464 1.524,4.9784 1.524,2.0828 4.9784,2.032 -0.2032,-0.3556 -0.2032,-0.8636 0,-0.8636 0.6096,-1.6764 0.6604,-0.762 1.8796,-0.8636 2.032,-0.1524 2.8956,-1.1176 0.8636,-0.9144 1.0668,-1.4224 0.1524,0.254 0.2032,0.5588 0.0508,0.3556 0.0508,0.6604 0,0.9652 -0.4064,1.8796 -0.3556,0.9652 -0.6604,1.4224 -0.8128,1.27 -1.8288,1.8288 -1.016,0.5588 -1.8796,0.5588 z m 1.4224,-34.239199 q 3.4544,-0.1524 6.604,-1.1684 3.2004,-1.0668 5.2324,-2.8448 1.8288,-1.6256 1.8288,-2.9972 -0.0508,-1.016 -1.0668,-1.524 -0.9652,-0.508 -2.4384,-0.508 -1.7272,0 -3.7592,0.762 -2.032,0.762 -3.7084,2.3876 -1.6764,1.5748 -2.3876,4.064 -0.2032,0.9144 -0.3048,1.8288 z m 3.6576,4.4196 q 0.7112,0 0.7112,-0.3556 0,-0.3556 -0.8636,-0.7112 -0.8636,-0.4064 -2.794,-0.4064 0.7112,0.9652 2.1336,1.3716 0.254,0.0508 0.4064,0.1016 0.2032,0 0.4064,0 z m -13.0556,18.948399 q 0.9144,0.1016 1.9304,0 3.5052,-0.254 6.0452,-1.2192 2.5908,-0.9144 4.3688,-2.3368 1.8288,-1.4224 3.0988,-2.9972 1.27,-1.5748 1.8288,-2.9464 0.6096,-1.3716 0.6096,-2.489199 0,-1.6764 -1.1176,-2.6416 -1.1176,-0.9652 -2.9464,-0.9652 -0.6604,0 -1.4224,0.1524 -0.762,0.1016 -1.5748,0.4064 -2.6416,0.9652 -4.9276,3.403599 -2.2352,2.3876 -3.81,5.4864 -1.524,3.0988 -2.0828,6.1468 z m 23.11399,-1.0668 q -1.4224,0 -2.1844,-1.0668 -0.762,-1.1176 -0.762,-2.8448 0,-1.8796 1.016,-4.3688 0.5588,-1.3716 1.6764,-2.793999 1.1176,-1.4732 2.5908,-2.6924 1.4732,-1.27 3.1496,-2.032 1.7272,-0.8128 3.5052,-0.8128 1.3716,0 1.8796,0.7112 0.508,0.7112 0.508,1.7272 0,0.9652 -0.3048,1.9812 l 2.8448,-4.318 q 0.3556,-0.254 1.5748,-0.254 0.9144,0 1.72719,0.2032 0.8636,0.2032 0.508,0.6096 -0.4064,0.508 -1.42239,1.5748 -0.9652,1.016 -2.1336,2.4384 -1.1176,1.422399 -2.1336,2.997199 -0.508,0.8636 -1.524,2.54 -0.9652,1.6764 -1.524,3.2004 -0.3048,0.9144 -0.3048,1.4732 0,1.0668 0.9144,1.0668 0.508,0 1.3716,-0.3556 0.8636,-0.4064 1.6764,-1.0668 1.6256,-1.3208 2.8448,-3.1496 1.2192,-1.8796 2.18439,-3.302 0.0508,-0.0508 0.1016,-0.1016 0.1016,-0.0508 0.3048,-0.0508 0.2032,0 0.3048,0.2032 0.1016,0.1524 -0.1016,0.4064 -1.42239,2.1336 -2.79399,4.0132 -1.3716,1.8288 -2.794,2.9464 -1.4224,1.1176 -3.0988,1.1176 -1.3208,0 -2.1336,-0.762 -0.762,-0.8128 -0.762,-2.1844 0,-0.6096 0.1016,-1.27 0.1524,-0.6604 0.3556,-1.2192 -0.8128,1.0668 -2.032,2.3368 -1.1684,1.27 -2.4892,2.1844 -1.3208,0.9144 -2.6416,0.9144 z m 0.4572,-0.9652 q 1.016,0 2.1336,-0.8128 1.1684,-0.8128 2.3368,-2.0828 1.1684,-1.3208 2.1336,-2.794 0.8128,-1.2192 1.5748,-2.5908 0.8128,-1.3716 1.3208,-2.692399 0.5588,-1.3208 0.5588,-2.3876 0,-1.6256 -1.1684,-1.6256 -0.8128,0 -1.8796,0.7112 -1.0668,0.7112 -2.1844,1.8288 -1.0668,1.1176 -2.032,2.4384 -0.9144,1.269999 -1.4732,2.489199 -0.1524,0.3048 -0.762,1.4732 -0.5588,1.1684 -1.1176,2.54 -0.508,1.3716 -0.508,2.3876 0,1.1176 1.0668,1.1176 z m 21.84398,1.1684 q -1.016,0 -1.8288,-0.6096 -0.762,-0.6096 -0.762,-1.7272 0,-1.27 0.6604,-2.7432 0.7112,-1.4732 1.524,-2.6416 0.8128,-1.2192 1.0668,-1.5748 0.9144,-1.2192 1.6764,-2.489199 0.8128,-1.3208 0.8128,-2.1336 0,-0.762 -0.6604,-0.9652 -0.5588,-0.2032 -1.1684,-0.4064 -0.6096,-0.254 -0.9144,-0.3048 -0.1524,0.254 -0.7112,1.2192 -0.5588,0.9144 -1.3208,2.1336 -0.7112,1.168399 -1.3716,2.285999 -0.6604,1.1176 -1.016,1.6764 -0.3048,0.3556 -0.508,0.3556 -0.2032,0 -0.3048,-0.2032 -0.0508,-0.2032 0.1016,-0.4572 1.524,-2.3876 2.6924,-4.470399 1.1684,-2.0828 1.524,-2.6416 -0.508,-0.3556 -0.8128,-1.2192 -0.3048,-0.8636 -0.3048,-1.778 0,-1.016 0.4064,-1.8288 0.4064,-0.8128 1.3716,-0.8128 0.6604,0 0.9144,0.6604 0.254,0.6096 0.254,1.4224 0,0.7112 -0.1524,1.3716 -0.1524,0.6604 -0.254,0.9144 l -0.3556,0.8128 q 0.6096,0.0508 1.8288,0.2032 1.2192,0.1524 2.54,0.3556 0.762,0.1016 1.2192,0.5588 0.508,0.4572 0.508,1.2192 0,0.762 -0.508,1.8288 -0.508,1.066799 -1.7272,2.438399 -0.6096,0.7112 -1.4732,1.8796 -0.8636,1.1684 -1.6256,2.286 -0.762,1.0668 -1.1176,1.6764 -0.6604,1.0668 -0.6604,1.9304 0,0.9652 1.0668,0.9652 1.1684,0 2.4892,-0.8636 1.3208,-0.9144 2.5908,-2.2352 1.27,-1.3208 2.2352,-2.5908 1.016,-1.3208 1.4732,-2.0828 0.2032,-0.3556 0.5588,-0.3556 0.254,0 0.254,0.254 0,0.254 -0.1016,0.4064 -0.508,0.762 -1.6764,2.286 -1.1176,1.524 -2.6924,3.0988 -1.5748,1.524 -3.5052,2.3876 -0.6096,0.254 -1.2192,0.3556 -0.6096,0.1524 -1.016,0.1524 z m 11.27759,-0.1524 q -1.4732,0 -2.6416,-0.8128 -1.1176,-0.8636 -1.1176,-2.4892 0,-0.8636 0.1016,-1.524 0.1016,-0.7112 0.4572,-1.4732 0.4064,-0.8128 1.1684,-2.032 0.8128,-1.2192 2.1844,-3.098799 l 3.7084,-5.2324 h -2.7432 l 0.4064,-0.762 h 2.8956 l 4.064,-5.842 q 1.1176,-0.8128 2.6924,-0.8128 0.762,0 1.524,0.254 l -4.826,6.35 h 3.6068 l -0.4064,0.762 h -3.7592 l -4.2164,5.892799 q -0.3048,0.4064 -1.016,1.4224 -0.7112,0.9652 -1.524,2.2352 -0.762,1.27 -1.3208,2.54 -0.5588,1.2192 -0.5588,2.2352 0,1.6764 1.6256,1.6764 0.8636,0 1.9304,-0.508 2.3368,-1.016 3.9624,-2.8956 1.6764,-1.9304 3.2004,-4.318 0.1524,-0.2032 0.4572,-0.2032 0.1524,0 0.254,0.1524 0.1016,0.1524 0,0.3556 -0.9144,1.4224 -2.032,2.9464 -1.1176,1.524 -2.54,2.794 -1.3716,1.27 -3.0988,1.9304 -1.1176,0.4572 -2.4384,0.4572 z m 17.06881,0.1524 q -2.794,0 -2.794,-2.794 0,-1.016 0.762,-2.4384 0.8128,-1.4224 1.9304,-2.8956 1.1176,-1.524 2.1336,-2.7432 1.016,-1.219199 1.524,-1.777999 1.524,-1.8288 1.524,-2.5908 0,-0.5588 -0.6604,-0.5588 -0.508,0 -0.9652,0.2032 -1.8796,0.6604 -3.81,2.4384 -1.9304,1.778 -3.7084,4.114799 -1.7272,2.286 -3.0988,4.572 -1.3716,2.286 -2.1844,3.9624 -0.0508,0.1524 -0.5588,0.2032 -0.4572,0.1016 -1.016,0.1016 -0.508,0 -0.9144,-0.1016 -0.3556,-0.0508 -0.3556,-0.2032 0,0 0.9144,-1.6764 0.9144,-1.6764 2.4892,-4.4196 1.5748,-2.794 3.556,-6.146799 2.032,-3.3528 4.2164,-6.7056 1.778,-2.7432 3.6576,-5.4864 1.8796,-2.7432 4.1148,-5.1308 2.286,-2.4384 5.1816,-4.064 1.1176,-0.6604 1.9812,-0.8636 0.9144,-0.254 1.5748,-0.254 0.6604,0 1.1684,0.1524 1.1684,0.3048 1.1684,1.778 0,1.1176 -0.6096,2.6924 -0.6096,1.524 -1.5748,3.048 -0.9652,1.4732 -1.9812,2.6416 -2.7432,2.9972 -5.3848,4.6736 -2.6416,1.6256 -4.7752,2.3368 -2.0828,0.6604 -3.2004,0.9144 -0.4064,0.5588 -1.1684,1.7272 -0.762,1.1176 -1.6764,2.4384 -0.508,0.7112 -0.508,0.8636 0,0.0508 0.2032,-0.0508 0.2032,-0.1524 0.4572,-0.4064 1.3208,-1.3208 2.7432,-2.4384 1.4732,-1.1176 2.9464,-1.6764 1.0668,-0.4064 2.1336,-0.4064 1.016,0 1.778,0.4064 0.8128,0.3556 0.8128,1.2192 0,0.762 -0.762,1.8288 -0.6604,0.8636 -1.8796,2.489199 -1.1684,1.6256 -2.4384,3.4544 -1.2192,1.8288 -2.0828,3.4544 -0.8636,1.5748 -0.8636,2.3876 0,0.762 0.7112,0.762 1.016,0 2.2352,-0.8128 1.27,-0.8636 2.54,-2.0828 1.27,-1.27 2.286,-2.5908 1.0668,-1.3208 1.6764,-2.286 0.2032,-0.1016 0.3556,-0.1016 0.508,0 0.254,0.5588 -1.524,2.3876 -3.302,4.2672 -1.778,1.8796 -3.556,2.9464 -1.7272,1.0668 -3.2004,1.0668 z m 0.9652,-17.983199 q 0.9652,-0.2032 2.6924,-0.9652 1.778,-0.762 3.9624,-2.286 2.2352,-1.524 4.5212,-4.064 0.9144,-1.016 2.0828,-2.54 1.2192,-1.524 1.8288,-2.794 0.4064,-0.9144 0.5588,-1.524 0.2032,-0.6604 0.2032,-1.0668 0,-0.9144 -0.8128,-0.9144 -0.8128,0 -2.032,0.762 -1.2192,0.7112 -2.1844,1.5748 -1.5748,1.4224 -3.302,3.5052 -1.7272,2.032 -3.302,4.1656 -1.524,2.1336 -2.6924,3.81 -1.1176,1.6764 -1.524,2.3368 z"
       id="text3"
       aria-label="GreenEarth" />
  </g>
</svg>
